<svg width="22" height="21" viewBox="0 0 22 21" fill="none" xmlns="http://www.w3.org/2000/svg">
<path d="M5.06491 12.2075C5.46074 11.3835 5.41719 10.3096 4.94228 9.18388C4.10317 7.19392 2.65807 6.05721 1.42814 6.4193C0.200325 6.78105 -0.300757 8.45826 0.181168 10.5928C0.441677 11.7465 1.04021 12.6457 1.86663 13.1253C2.26301 13.3553 2.68691 13.4729 3.10212 13.4729C3.3065 13.4729 3.50887 13.4444 3.70489 13.3866C4.3012 13.211 4.78424 12.7921 5.06491 12.2075Z" fill="white"/>
<path d="M5.8063 7.18158C6.29781 7.62854 6.89144 7.86833 7.49644 7.86833C7.56059 7.86833 7.62452 7.86565 7.68878 7.86031C8.3625 7.80362 8.97373 7.4637 9.40999 6.90314C10.0198 6.11928 10.2294 4.97901 9.99984 3.69183C9.59187 1.40516 8.33967 -0.110222 6.95459 0.00627735C5.57553 0.122443 4.64554 1.78518 4.64064 4.14368C4.63796 5.4166 5.05206 6.49539 5.8063 7.18158Z" fill="white"/>
<path d="M20.5721 6.41933C19.3424 6.05724 17.8969 7.19395 17.0577 9.18391C16.5829 10.3096 16.5394 11.3835 16.9352 12.2076C17.2159 12.7922 17.6989 13.2111 18.2952 13.3866C18.4912 13.4444 18.6934 13.4729 18.898 13.4729C19.313 13.4729 19.7371 13.3553 20.1335 13.1253C20.9599 12.6457 21.5585 11.7463 21.8189 10.5928C22.3009 8.45829 21.7998 6.78108 20.5721 6.41933Z" fill="white"/>
<path d="M14.3107 7.86026C14.375 7.86561 14.4389 7.86828 14.5028 7.86828C15.108 7.86828 15.7019 7.62849 16.1932 7.18154C16.9474 6.49535 17.3615 5.41656 17.3589 4.14364C17.3537 1.78513 16.424 0.122398 15.0449 0.00623266C13.661 -0.109821 12.4076 1.40512 11.9997 3.69178C11.7701 4.97896 11.9795 6.11923 12.5895 6.9031C13.0258 7.46365 13.637 7.80357 14.3107 7.86026Z" fill="white"/>
<path d="M16.2218 14.0282C14.5873 12.8365 13.9203 11.0129 13.9137 10.9946L13.9108 10.987C12.9928 8.75698 11.3234 8.66688 11.0026 8.67334C10.6773 8.66799 9.00733 8.75698 8.08837 10.9894C8.08057 11.0089 7.29637 12.9622 5.78065 14.0263C4.54961 14.8906 3.46937 16.5271 4.12849 18.5287C4.14787 18.5947 4.36027 19.284 4.98108 19.8704C6.05063 20.8808 7.45942 20.773 8.4529 20.5048L8.45958 20.5029C8.46927 20.4998 9.4339 20.1998 10.2872 19.9856C10.7536 19.8685 11.2466 19.8688 11.7129 19.9856C12.5659 20.1996 13.5309 20.4998 13.5406 20.5029L13.547 20.5048C14.0292 20.6349 14.4595 20.6899 14.8428 20.6899C15.8912 20.6899 16.5868 20.2786 17.0191 19.8704C17.6399 19.284 17.8523 18.5943 17.8717 18.5287C18.6841 16.061 16.8146 14.4601 16.2218 14.0282Z" fill="white"/>
</svg>
